<svg width="320" height="109" viewBox="0 0 320 109" fill="none" xmlns="http://www.w3.org/2000/svg">
<g opacity="0.2">
<path d="M21.4289 107H3.45928L33.5935 54.6602L34.1681 53.6621L33.5933 52.6642L4.4157 2H22.4419L52.1001 53.5063L21.4289 107ZM10.611 3.97477H7.15125L8.87781 6.97286L34.4288 51.341L34.4289 51.3412L35.7658 53.6623L7.90829 102.027L6.18135 105.025H9.64136H19.8153H20.9741L21.5504 104.02L49.9419 54.499L50.5134 53.5021L49.94 52.5062L22.5728 4.97679L21.9958 3.97477H20.8395H10.611Z" stroke="url(#paint0_linear_967_884)" stroke-width="4"/>
<path d="M71.6385 37.5204L62.486 21.8422L74.0228 2H92.3187L71.6385 37.5204ZM62.4862 87.4681L71.7187 70.2797L93.2856 107H74.9375L62.4862 87.4681Z" stroke="url(#paint1_linear_967_884)" stroke-width="4"/>
<path d="M117.884 107H104.542V2H117.884V95.5331V107ZM130.968 107V97.5331H166.136V107H130.968Z" stroke="url(#paint2_linear_967_884)" stroke-width="4"/>
<path d="M209.119 69.8249L202.171 58.6497H209.007C211.478 58.6497 213.951 58.2696 216.386 57.4764L216.393 57.4738L216.401 57.4712C218.935 56.6222 221.245 55.2601 223.285 53.3832C225.414 51.4411 227.04 48.8078 228.265 45.6041L228.268 45.5965L228.271 45.5888C229.51 42.2673 230.103 38.2852 230.103 33.699C230.103 31.739 229.814 29.5466 229.266 27.1253L229.266 27.1225C228.673 24.516 227.494 22.0536 225.775 19.7398C223.974 17.2846 221.472 15.3117 218.364 13.7633C215.136 12.1547 211.024 11.4037 206.119 11.4037H200.572V2H206.447C211.044 2 215.584 2.70982 220.089 4.12123C224.591 5.53701 228.588 7.63816 232.114 10.4213L232.116 10.4234C235.658 13.2097 238.5 16.5869 240.651 20.5533L240.655 20.5614L240.66 20.5694C242.794 24.4194 243.887 28.791 243.887 33.699C243.887 41.2541 242.069 47.5421 238.532 52.6687L238.526 52.6776C234.984 57.8701 230.183 61.7055 224.062 64.2202L221.906 65.1058L223.109 67.102L247.138 107H232.233L209.119 69.8249ZM175.898 2H190.273V107H175.898V2Z" stroke="url(#paint3_linear_967_884)" stroke-width="4"/>
<path d="M263.484 17.3558L263.487 17.3493L263.49 17.3427C264.759 14.2526 266.433 11.6655 268.5 9.53715C270.593 7.42787 273.092 5.77539 276.008 4.58421L276.016 4.58103L276.023 4.57779C278.41 3.57925 280.343 2.81751 282.631 2.34211V7.49264V12.6043C279.489 13.4348 277.444 14.9969 275.43 17.138C272.84 19.8923 271.674 23.6069 271.674 28.0108C271.674 31.2957 273.072 34.1998 275.615 36.6544L275.625 36.664L275.635 36.6734C276.145 37.1528 276.583 37.6009 277.01 38.0372C278.127 39.1801 279.165 40.2421 281.221 41.5729L281.221 49.4514L281.221 49.4595L281.251 56.8076C280.245 57.7124 279.142 58.7254 277.96 59.8542L277.952 59.8613L277.945 59.8685C276.448 61.3276 275.049 62.9804 273.779 64.8246L273.773 64.8341L273.767 64.8436C272.507 66.7186 271.417 68.8426 270.521 71.2076C269.563 73.6945 269.104 76.3616 269.104 79.188C269.104 83.7449 270.627 87.7234 273.659 91.035L273.667 91.0428C276.213 93.7945 278.817 95.753 282.631 96.758V101.9V106.824C274.892 105.994 269.638 103.418 265.396 99.1444L265.394 99.1422C260.819 94.5471 258.441 88.2648 258.441 80.0575C258.441 73.1965 259.95 67.5705 262.852 63.0702C265.813 58.4942 269.654 55.0828 274.423 52.794L277.381 51.3743L274.763 49.3955C270.971 46.5282 267.814 43.3167 265.251 39.7628C262.829 36.3753 261.595 32.3973 261.595 27.7624C261.595 23.7994 262.232 20.3438 263.484 17.3558ZM300.268 49.932L298.349 51.6409L300.477 53.0817C302.868 54.7006 305.145 56.4411 307.31 58.2883L307.316 58.2936L307.323 58.2989C309.42 60.0592 311.255 62.0247 312.843 64.1684L312.849 64.1764C314.437 66.2976 315.686 68.6204 316.598 71.1671L316.603 71.1795L316.607 71.1918C317.525 73.6513 318 76.3471 318 79.3122C318 83.5454 317.254 87.3094 315.826 90.6337L315.823 90.6406C314.405 93.9747 312.469 96.7875 310.034 99.1044L310.033 99.1048C307.555 101.465 304.692 103.337 301.4 104.737C298.764 105.858 296.414 106.507 293.678 106.825V101.9V96.8939C295.077 96.6315 296.227 96.2132 297.604 95.5009C299.491 94.5399 301.145 93.3426 302.563 91.8876L302.564 91.887C303.99 90.4223 305.125 88.8191 305.968 87.0784L305.975 87.0645L305.982 87.0505C306.825 85.24 307.278 83.3384 307.278 81.3618C307.278 76.9681 305.658 73.101 302.529 69.8059C299.85 66.9291 296.682 64.2384 293.024 61.7285V46.0499C293.248 45.9396 293.494 45.8156 293.753 45.6802C294.786 45.1413 296.17 44.3532 297.196 43.4876C298.339 42.524 298.795 41.9363 299.518 41.0044C299.843 40.5863 300.221 40.0989 300.739 39.4771L300.794 39.4113L300.843 39.3411C303.125 36.0715 304.241 32.1801 304.241 27.7624C304.241 22.5332 303.124 18.312 300.306 15.7788L300.301 15.7739L300.296 15.7691C298.262 13.9678 296.287 12.8815 293.678 12.4335V7.49263V2.27064C296.931 2.58627 299.371 3.26419 301.785 4.41216C304.718 5.82875 307.062 7.69073 308.839 9.98268L308.844 9.98922C310.696 12.3582 312.039 15.0104 312.875 17.9923L312.878 18.0029L312.881 18.0134C313.76 21.0227 314.203 24.1562 314.203 27.4518C314.203 29.5221 313.815 31.5285 313.053 33.4976C312.25 35.553 311.2 37.5251 309.887 39.4157L309.879 39.4267L309.872 39.4378C308.566 41.3716 307.061 43.225 305.352 45.0126C303.634 46.8081 301.935 48.4477 300.268 49.932Z" stroke="url(#paint4_linear_967_884)" stroke-width="4"/>
</g>
<defs>
<linearGradient id="paint0_linear_967_884" x1="27.2034" y1="0" x2="27.2034" y2="109" gradientUnits="userSpaceOnUse">
<stop stop-color="#36A7BE"/>
<stop offset="1" stop-color="#194D58"/>
</linearGradient>
<linearGradient id="paint1_linear_967_884" x1="78.4746" y1="0" x2="78.4746" y2="109" gradientUnits="userSpaceOnUse">
<stop stop-color="#36A7BE"/>
<stop offset="1" stop-color="#194D58"/>
</linearGradient>
<linearGradient id="paint2_linear_967_884" x1="135.339" y1="0" x2="135.339" y2="109" gradientUnits="userSpaceOnUse">
<stop stop-color="#36A7BE"/>
<stop offset="1" stop-color="#194D58"/>
</linearGradient>
<linearGradient id="paint3_linear_967_884" x1="212.288" y1="0" x2="212.288" y2="109" gradientUnits="userSpaceOnUse">
<stop stop-color="#36A7BE"/>
<stop offset="1" stop-color="#194D58"/>
</linearGradient>
<linearGradient id="paint4_linear_967_884" x1="288.22" y1="0" x2="288.22" y2="109" gradientUnits="userSpaceOnUse">
<stop stop-color="#36A7BE"/>
<stop offset="1" stop-color="#194D58"/>
</linearGradient>
</defs>
</svg>
