<svg width="66" height="66" viewBox="0 0 66 66" fill="none" xmlns="http://www.w3.org/2000/svg">
<g id="Blink on hover">
<path id="Vector" d="M0.75 33C0.75 50.8112 15.1888 65.25 33 65.25C50.8112 65.25 65.25 50.8112 65.25 33C65.25 15.1888 50.8112 0.75 33 0.75C15.1888 0.75 0.75 15.1888 0.75 33Z" fill="#FF0000" fill-opacity="0.8" stroke="white" stroke-width="0.5" stroke-linecap="round" stroke-linejoin="round"/>
<g id="plus-circle">
<path id="Vector_2" d="M24.6668 32.9998C24.6668 37.6022 28.3978 41.3332 33.0002 41.3332C37.6025 41.3332 41.3335 37.6022 41.3335 32.9998C41.3335 28.3975 37.6025 24.6665 33.0002 24.6665C28.3978 24.6665 24.6668 28.3975 24.6668 32.9998Z" fill="white"/>
<path id="Vector_3" d="M36.3335 33H29.6668" stroke="white" stroke-linecap="round" stroke-linejoin="round"/>
<path id="Vector_4" d="M33 29.6665V36.3332" stroke="white" stroke-linecap="round" stroke-linejoin="round"/>
</g>
</g>
</svg>
